<svg width="152" height="132" viewBox="0 0 152 132" fill="none" xmlns="http://www.w3.org/2000/svg">
<path d="M3.32553 70.9311C24.7923 61.3578 47.0315 46.1657 71.0038 50.8238" stroke="#282828" stroke-width="5" stroke-linecap="round"/>
<path d="M6.76367 76.1875C14.3244 79.117 21.2293 78.2271 29.0783 77.2628C37.7536 76.1969 47.2746 76.195 55.197 72.0472C59.6321 69.7252 59.8507 62.2357 62.1899 58.0858C63.6092 55.5681 65.2514 53.2418 66.5382 50.6333" stroke="#282828" stroke-width="5" stroke-linecap="round"/>
<path d="M36.8757 62.8353C36.3302 67.2983 35.8354 70.1735 37.6262 74.1892C38.4159 75.9601 40.7903 75.9445 41.9519 74.2181C44.523 70.3971 42.5609 59.232 36.0288 62.145C30.7417 64.5028 40.4345 75.0202 43.6265 71.9287C46.8339 68.8223 43.5899 62.8109 41.9628 59.736C41.0267 57.9669 38.3416 59.8013 38.2772 61.1424" stroke="#282828" stroke-width="5" stroke-linecap="round"/>
<path d="M83.9013 40.4615C94.4353 35.7638 105.814 28.3832 117.135 26.2598C122.65 25.2255 132.972 25.1675 137.28 30.0276" stroke="#282828" stroke-width="5" stroke-linecap="round"/>
<path d="M87.3438 45.7265C98.5536 51.559 111.969 45.6775 122.409 41.0216C126.683 39.1159 130.508 37.8105 133.029 33.5524C134.314 31.3832 137.244 29.4118 136.969 26.8759" stroke="#282828" stroke-width="5" stroke-linecap="round"/>
<path d="M109.567 36.6328C111.627 37.0496 116.104 38.7959 115.463 35.2564C114.972 32.5467 110.062 34.8422 110.766 38.1482C111.945 43.6793 115.287 40.0744 113.439 35.9312" stroke="#282828" stroke-width="5" stroke-linecap="round"/>
<path d="M79.6359 57.9243C81.0459 61.0862 83.0972 64.5057 83.9626 67.8997C85.7158 74.7761 82.9198 81.9677 83.7079 88.9211C83.8984 90.6009 83.5351 94.0026 85.9687 93.7173C90.0287 93.2413 94.6176 91.7556 98.3657 90.0841" stroke="#282828" stroke-width="5" stroke-linecap="round"/>
<path d="M68.2402 113.373C82.2699 115.405 97.4624 116.141 111.247 113.082C117.178 111.765 126.5 111.037 130.837 106.259C133.48 103.346 132.72 98.6114 134.891 95.8713" stroke="#282828" stroke-width="5" stroke-linecap="round"/>
<path d="M11.7016 45.5178C17.0844 39.6189 22.2513 34.2435 29.5474 30.9898C34.2052 28.9126 38.7697 33.0985 43.0623 34.8171" stroke="#282828" stroke-width="5" stroke-linecap="round"/>
<path d="M90.458 15.8778C94.7253 11.4661 98.3414 7.76747 104.054 5.44437C107.614 3.99675 111.769 3.42542 115.549 4.68829C117.202 5.24041 117.119 6.5666 119.076 6.39308" stroke="#282828" stroke-width="5" stroke-linecap="round"/>
<path d="M119.976 67.3383C125.391 64.9238 126.623 63.5312 128.53 69.7984C129.574 73.2305 126.16 69.1651 125.655 68.0329" stroke="#282828" stroke-width="5" stroke-linecap="round"/>
<path d="M143.106 59.1823C143.425 64.1087 143.327 66.7482 148.125 64.6087C149.991 63.7764 148.682 58.66 146.982 58.5489" stroke="#282828" stroke-width="5" stroke-linecap="round"/>
<path d="M140.996 77.6425C148.374 79.814 145.183 83.0559 142.266 80.4897" stroke="#282828" stroke-width="5" stroke-linecap="round"/>
<path d="M27.0927 98.875C38.8204 102.223 28.9243 108.821 27.979 100.862" stroke="#282828" stroke-width="5" stroke-linecap="round"/>
<path d="M47.6035 94.1074C52.7746 95.5483 53.2643 99.9477 51.3105 95.5666" stroke="#282828" stroke-width="5" stroke-linecap="round"/>
<path d="M45.2969 115.94C54.6732 113.379 49.1682 118.12 47.6941 117.999C44.9063 117.772 51.9624 114.138 49.2488 116.662" stroke="#282828" stroke-width="5" stroke-linecap="round"/>
</svg>
